<svg width="171" height="48" viewBox="0 0 171 48" fill="none" xmlns="http://www.w3.org/2000/svg">
<path d="M66.628 5.8C67.084 6.064 67.42 6.436 67.636 6.916C67.876 7.372 67.996 7.876 67.996 8.428C67.996 8.908 67.9 9.388 67.708 9.868C67.516 10.348 67.264 10.744 66.952 11.056C66.592 11.032 66.052 11.02 65.332 11.02C64.876 11.02 64.048 11.044 62.848 11.092L60.94 11.128C61.06 10.432 60.772 12.052 60.076 15.988L59.356 20.092C59.116 21.508 58.864 23.368 58.6 25.672C58.36 27.64 58.144 29.02 57.952 29.812C57.784 30.604 57.508 31 57.124 31C56.572 31 55.912 30.808 55.144 30.424C54.4 30.016 53.74 29.536 53.164 28.984C52.612 28.432 52.336 27.976 52.336 27.616C52.312 27.064 52.6 25.432 53.2 22.72C53.656 20.44 53.98 18.748 54.172 17.644C54.172 17.692 54.364 16.696 54.748 14.656C55.084 12.832 55.288 11.716 55.36 11.308L49.744 11.992C49.288 11.752 48.916 11.404 48.628 10.948C48.364 10.468 48.232 9.952 48.232 9.4C48.232 8.44 48.604 7.588 49.348 6.844C50.716 6.652 52.42 6.532 54.46 6.484C56.524 6.412 57.748 6.364 58.132 6.34C60.652 6.268 62.488 6.208 63.64 6.16C64.816 6.088 65.812 5.968 66.628 5.8ZM70.6088 10.66C72.3128 10.852 73.8608 11.368 75.2528 12.208C76.6688 13.024 77.7728 14.008 78.5648 15.16C79.3568 16.312 79.7528 17.464 79.7528 18.616C79.7528 20.344 79.3088 22.18 78.4208 24.124C77.5328 26.068 76.2968 27.7 74.7128 29.02C73.1288 30.34 71.3648 31 69.4208 31C68.4608 31 67.4408 30.652 66.3608 29.956C65.2808 29.236 64.3688 28.372 63.6248 27.364C62.9048 26.332 62.5448 25.42 62.5448 24.628C62.5448 23.164 62.7248 21.664 63.0848 20.128C63.4448 18.568 63.9968 17.056 64.7408 15.592C65.4368 15.208 66.1328 15.016 66.8288 15.016C67.1408 15.016 67.4288 15.052 67.6928 15.124C67.5968 14.836 67.5488 14.5 67.5488 14.116C67.5488 13.348 67.8128 12.652 68.3408 12.028C68.8928 11.404 69.6488 10.948 70.6088 10.66ZM68.1248 26.896C70.1168 26.224 71.6648 25.072 72.7688 23.44C73.8728 21.808 74.6048 19.864 74.9648 17.608C73.8848 16.84 72.4208 16.456 70.5728 16.456C70.1168 16.456 69.7688 16.468 69.5288 16.492C69.7928 16.972 69.9248 17.512 69.9248 18.112C69.3008 19.096 68.8208 20.188 68.4848 21.388C68.1488 22.564 67.9808 23.752 67.9808 24.952C67.9808 25.672 68.0288 26.32 68.1248 26.896ZM82.6235 5.44C85.5275 5.68 88.2155 6.4 90.6875 7.6C93.1595 8.8 95.1155 10.312 96.5555 12.136C97.9955 13.936 98.7155 15.832 98.7155 17.824C98.7155 19.576 97.9475 21.508 96.4115 23.62C94.8755 25.732 93.0035 27.52 90.7955 28.984C88.6115 30.448 86.6195 31.18 84.8195 31.18C84.2195 31.18 83.4515 30.88 82.5155 30.28C81.6035 29.68 80.7995 28.996 80.1035 28.228C79.4075 27.436 79.0595 26.812 79.0595 26.356C79.0595 25.948 79.2995 24.808 79.7795 22.936C80.2595 20.992 80.6555 19.24 80.9675 17.68C81.0875 17.08 81.3515 16.024 81.7595 14.512C81.8075 14.296 81.9275 13.864 82.1195 13.216C82.3115 12.544 82.4555 11.932 82.5515 11.38L81.0755 11.308C80.6915 10.54 80.4995 9.772 80.4995 9.004C80.4995 8.284 80.6795 7.624 81.0395 7.024C81.3995 6.4 81.9275 5.872 82.6235 5.44ZM84.8195 26.464C87.2195 25.216 89.2115 23.692 90.7955 21.892C92.4035 20.092 93.2075 18.4 93.2075 16.816C93.2075 15.88 92.6435 14.98 91.5155 14.116C90.4115 13.252 89.1395 12.676 87.6995 12.388C87.4115 13.852 86.9795 15.952 86.4035 18.688C85.6835 22.096 85.1555 24.688 84.8195 26.464ZM105.788 10.66C107.492 10.852 109.04 11.368 110.432 12.208C111.848 13.024 112.952 14.008 113.744 15.16C114.536 16.312 114.932 17.464 114.932 18.616C114.932 20.344 114.488 22.18 113.6 24.124C112.712 26.068 111.476 27.7 109.892 29.02C108.308 30.34 106.544 31 104.6 31C103.64 31 102.62 30.652 101.54 29.956C100.46 29.236 99.5476 28.372 98.8036 27.364C98.0836 26.332 97.7236 25.42 97.7236 24.628C97.7236 23.164 97.9036 21.664 98.2636 20.128C98.6236 18.568 99.1756 17.056 99.9196 15.592C100.616 15.208 101.312 15.016 102.008 15.016C102.32 15.016 102.608 15.052 102.872 15.124C102.776 14.836 102.728 14.5 102.728 14.116C102.728 13.348 102.992 12.652 103.52 12.028C104.072 11.404 104.828 10.948 105.788 10.66ZM103.304 26.896C105.296 26.224 106.844 25.072 107.948 23.44C109.052 21.808 109.784 19.864 110.144 17.608C109.064 16.84 107.6 16.456 105.752 16.456C105.296 16.456 104.948 16.468 104.708 16.492C104.972 16.972 105.104 17.512 105.104 18.112C104.48 19.096 104 20.188 103.664 21.388C103.328 22.564 103.16 23.752 103.16 24.952C103.16 25.672 103.208 26.32 103.304 26.896ZM130.762 22.036C130.786 22.42 130.87 23.392 131.014 24.952C131.182 26.488 131.266 27.772 131.266 28.804C131.266 30.148 131.11 30.868 130.798 30.964C130.702 30.988 130.546 31 130.33 31C129.802 31 129.142 30.88 128.35 30.64C127.582 30.376 126.886 30.052 126.262 29.668C125.662 29.284 125.314 28.912 125.218 28.552C125.122 28.192 125.074 26.68 125.074 24.016C122.482 24.328 120.778 24.52 119.962 24.592C119.314 26.488 118.57 28.564 117.73 30.82C117.082 30.964 116.482 31.036 115.93 31.036C114.97 31.036 114.154 30.808 113.482 30.352C112.834 29.872 112.402 29.152 112.186 28.192L112.906 26.572C115.546 20.692 117.826 15.76 119.746 11.776C121.69 7.792 122.95 5.8 123.526 5.8C123.982 5.8 124.642 5.968 125.506 6.304C126.394 6.64 127.186 7.048 127.882 7.528C128.602 8.008 129.01 8.44 129.106 8.824C129.274 9.496 129.502 10.9 129.79 13.036C130.078 15.172 130.306 17.236 130.474 19.228L130.762 22.036ZM124.966 11.416C123.91 13.912 122.866 16.588 121.834 19.444C122.938 19.372 124.03 19.264 125.11 19.12C125.11 15.808 125.062 13.24 124.966 11.416ZM144.07 11.308C145.342 11.308 146.47 11.608 147.454 12.208C148.438 12.808 149.194 13.636 149.722 14.692C150.274 15.724 150.55 16.888 150.55 18.184C150.55 20.104 149.998 22.072 148.894 24.088C147.814 26.08 146.386 27.736 144.61 29.056C142.858 30.352 141.034 31 139.138 31C138.322 31 137.506 30.676 136.69 30.028C136.402 31.228 136.174 32.452 136.006 33.7C135.862 34.972 135.778 35.716 135.754 35.932C135.562 37.564 135.37 38.74 135.178 39.46C135.01 40.18 134.734 40.54 134.35 40.54C133.726 40.54 133.03 40.336 132.262 39.928C131.518 39.52 130.882 39.028 130.354 38.452C129.802 37.9 129.526 37.42 129.526 37.012C129.526 36.556 129.73 35.548 130.138 33.988C130.546 32.428 131.17 30.172 132.01 27.22C132.754 24.58 133.33 22.504 133.738 20.992C134.146 19.48 134.35 18.52 134.35 18.112C134.35 17.92 134.242 17.728 134.026 17.536C133.834 17.32 133.51 17.02 133.054 16.636C132.55 16.228 132.178 15.904 131.938 15.664C131.698 15.424 131.578 15.172 131.578 14.908C131.578 14.404 131.806 13.816 132.262 13.144C132.742 12.472 133.294 11.896 133.918 11.416C134.566 10.936 135.118 10.696 135.574 10.696C136.27 10.696 137.062 11.08 137.95 11.848C138.838 12.616 139.474 13.384 139.858 14.152L141.262 11.776C142.198 11.464 143.134 11.308 144.07 11.308ZM139.138 26.392C139.906 26.392 140.746 25.996 141.658 25.204C142.57 24.388 143.338 23.392 143.962 22.216C144.586 21.016 144.898 19.876 144.898 18.796C144.898 18.004 144.706 17.392 144.322 16.96C143.938 16.528 143.386 16.312 142.666 16.312C141.826 16.312 141.058 16.792 140.362 17.752C139.69 18.688 139.15 19.84 138.742 21.208C138.358 22.576 138.166 23.836 138.166 24.988C138.166 25.444 138.25 25.792 138.418 26.032C138.61 26.272 138.85 26.392 139.138 26.392ZM162.503 11.308C163.775 11.308 164.903 11.608 165.887 12.208C166.871 12.808 167.627 13.636 168.155 14.692C168.707 15.724 168.983 16.888 168.983 18.184C168.983 20.104 168.431 22.072 167.327 24.088C166.247 26.08 164.819 27.736 163.043 29.056C161.291 30.352 159.467 31 157.571 31C156.755 31 155.939 30.676 155.123 30.028C154.835 31.228 154.607 32.452 154.439 33.7C154.295 34.972 154.211 35.716 154.187 35.932C153.995 37.564 153.803 38.74 153.611 39.46C153.443 40.18 153.167 40.54 152.783 40.54C152.159 40.54 151.463 40.336 150.695 39.928C149.951 39.52 149.315 39.028 148.787 38.452C148.235 37.9 147.959 37.42 147.959 37.012C147.959 36.556 148.163 35.548 148.571 33.988C148.979 32.428 149.603 30.172 150.443 27.22C151.187 24.58 151.763 22.504 152.171 20.992C152.579 19.48 152.783 18.52 152.783 18.112C152.783 17.92 152.675 17.728 152.459 17.536C152.267 17.32 151.943 17.02 151.487 16.636C150.983 16.228 150.611 15.904 150.371 15.664C150.131 15.424 150.011 15.172 150.011 14.908C150.011 14.404 150.239 13.816 150.695 13.144C151.175 12.472 151.727 11.896 152.351 11.416C152.999 10.936 153.551 10.696 154.007 10.696C154.703 10.696 155.495 11.08 156.383 11.848C157.271 12.616 157.907 13.384 158.291 14.152L159.695 11.776C160.631 11.464 161.567 11.308 162.503 11.308ZM157.571 26.392C158.339 26.392 159.179 25.996 160.091 25.204C161.003 24.388 161.771 23.392 162.395 22.216C163.019 21.016 163.331 19.876 163.331 18.796C163.331 18.004 163.139 17.392 162.755 16.96C162.371 16.528 161.819 16.312 161.099 16.312C160.259 16.312 159.491 16.792 158.795 17.752C158.123 18.688 157.583 19.84 157.175 21.208C156.791 22.576 156.599 23.836 156.599 24.988C156.599 25.444 156.683 25.792 156.851 26.032C157.043 26.272 157.283 26.392 157.571 26.392Z" fill="#0098BA" fill-opacity="0.83"/>
<path d="M66.628 5.8L67.129 4.93457L66.7994 4.74373L66.4263 4.82054L66.628 5.8ZM67.636 6.916L66.7241 7.32636L66.7367 7.35447L66.7511 7.38175L67.636 6.916ZM67.708 9.868L68.6365 10.2394L68.6365 10.2394L67.708 9.868ZM66.952 11.056L66.8855 12.0538L67.3382 12.084L67.6591 11.7631L66.952 11.056ZM62.848 11.092L62.8669 12.0918L62.8774 12.0916L62.888 12.0912L62.848 11.092ZM60.94 11.128L59.9545 10.9581L59.7489 12.1506L60.9589 12.1278L60.94 11.128ZM60.076 15.988L59.0913 15.8139L59.091 15.8152L60.076 15.988ZM59.356 20.092L58.371 19.9192L58.3701 19.9249L59.356 20.092ZM58.6 25.672L59.5927 25.7931L59.5935 25.7858L58.6 25.672ZM57.952 29.812L56.9802 29.5764L56.9768 29.5904L56.9738 29.6045L57.952 29.812ZM55.144 30.424L54.6632 31.3008L54.6798 31.3099L54.6968 31.3184L55.144 30.424ZM53.164 28.984L52.4569 29.6911L52.4644 29.6986L52.4721 29.706L53.164 28.984ZM52.336 27.616H53.336V27.5943L53.3351 27.5726L52.336 27.616ZM53.2 22.72L54.1764 22.936L54.1786 22.9261L54.1806 22.9161L53.2 22.72ZM54.172 17.644H55.172L53.1868 17.4727L54.172 17.644ZM54.748 14.656L55.7307 14.841L55.7315 14.8372L54.748 14.656ZM55.36 11.308L56.3448 11.4818L56.5794 10.1521L55.2391 10.3153L55.36 11.308ZM49.744 11.992L49.2783 12.8769L49.5547 13.0224L49.8649 12.9847L49.744 11.992ZM48.628 10.948L47.7518 11.4299L47.7664 11.4564L47.7825 11.482L48.628 10.948ZM49.348 6.844L49.209 5.85371L48.8776 5.90023L48.6409 6.13689L49.348 6.844ZM54.46 6.484L54.4835 7.48379L54.4949 7.48339L54.46 6.484ZM58.132 6.34L58.1034 5.34041L58.0865 5.34089L58.0696 5.34195L58.132 6.34ZM63.64 6.16L63.6816 7.15913L63.6914 7.15872L63.7011 7.15813L63.64 6.16ZM66.127 6.66542C66.4019 6.82462 66.5941 7.03755 66.7241 7.32636L68.5479 6.50563C68.2459 5.83445 67.7661 5.30338 67.129 4.93457L66.127 6.66542ZM66.7511 7.38175C66.9102 7.68399 66.996 8.02642 66.996 8.428H68.996C68.996 7.72558 68.8418 7.06001 68.5209 6.45025L66.7511 7.38175ZM66.996 8.428C66.996 8.77126 66.9279 9.12556 66.7795 9.49661L68.6365 10.2394C68.8721 9.65044 68.996 9.04474 68.996 8.428H66.996ZM66.7795 9.49661C66.6293 9.87218 66.4461 10.1476 66.2449 10.3489L67.6591 11.7631C68.0819 11.3403 68.4027 10.8238 68.6365 10.2394L66.7795 9.49661ZM67.0185 10.0582C66.6241 10.0319 66.057 10.02 65.332 10.02V12.02C66.047 12.02 66.5599 12.0321 66.8855 12.0538L67.0185 10.0582ZM65.332 10.02C64.8534 10.02 64.0067 10.0449 62.808 10.0928L62.888 12.0912C64.0893 12.0431 64.8986 12.02 65.332 12.02V10.02ZM62.8291 10.0922L60.9211 10.1282L60.9589 12.1278L62.8669 12.0918L62.8291 10.0922ZM61.9255 11.2979C61.9395 11.2165 61.9502 11.1537 61.9542 11.1276C61.9543 11.127 61.9571 11.1093 61.9596 11.0886C61.9602 11.0829 61.962 11.068 61.9635 11.0489C61.9642 11.0388 61.9656 11.0134 61.9661 10.998C61.9665 10.9719 61.9634 10.8923 61.9577 10.839C61.9234 10.6809 61.3986 10.0693 60.7476 9.99536C60.4056 10.1432 60.0938 10.4827 60.0534 10.5634C60.0389 10.5975 60.019 10.6511 60.0128 10.6701C60.0091 10.6821 60.0033 10.7022 60.001 10.7105C59.9938 10.737 59.9892 10.7588 59.9889 10.7604C59.9874 10.7673 59.9862 10.773 59.9856 10.7761C59.9842 10.7827 59.9831 10.7888 59.9823 10.7929C59.9792 10.8088 59.9748 10.8328 59.9696 10.8614C59.9482 10.9792 59.9013 11.2415 59.8294 11.646C59.6853 12.4565 59.4393 13.8459 59.0913 15.8139L61.0607 16.1621C61.4087 14.1941 61.6547 12.8055 61.7986 11.996C61.8707 11.5905 61.9168 11.3323 61.9374 11.2191C61.9427 11.1899 61.9456 11.1743 61.9467 11.1687C61.9522 11.1398 61.944 11.1868 61.9317 11.2323C61.9295 11.2404 61.9237 11.2605 61.92 11.2724C61.9138 11.2913 61.894 11.3448 61.8795 11.3789C61.8391 11.4595 61.5273 11.799 61.1853 11.9469C60.5343 11.8729 60.0095 11.2614 59.9752 11.1033C59.9696 11.05 59.9665 10.9704 59.9668 10.9444C59.9674 10.9292 59.9687 10.9038 59.9695 10.8939C59.9709 10.875 59.9726 10.8603 59.9733 10.8549C59.9747 10.8425 59.9761 10.8331 59.9764 10.8309C59.9769 10.8272 59.9773 10.8245 59.9775 10.8235C59.9778 10.8216 59.9765 10.8298 59.9718 10.8573C59.9677 10.8815 59.962 10.9149 59.9545 10.9581L61.9255 11.2979ZM59.091 15.8152L58.371 19.9192L60.341 20.2648L61.061 16.1608L59.091 15.8152ZM58.3701 19.9249C58.1258 21.3659 57.8715 23.2457 57.6065 25.5582L59.5935 25.7858C59.8565 23.4903 60.1062 21.6501 60.3419 20.2591L58.3701 19.9249ZM57.6074 25.5509C57.3673 27.5194 57.1569 28.8471 56.9802 29.5764L58.9239 30.0476C59.1311 29.1929 59.3527 27.7606 59.5926 25.7931L57.6074 25.5509ZM56.9738 29.6045C56.9394 29.7666 56.9032 29.8902 56.869 29.9817C56.8343 30.0747 56.8074 30.1185 56.7986 30.1312C56.7904 30.143 56.8121 30.1073 56.8773 30.0683C56.9498 30.0247 57.0383 30 57.124 30V32C57.7272 32 58.1683 31.6637 58.4394 31.2748C58.6886 30.9172 58.8348 30.4696 58.9302 30.0195L56.9738 29.6045ZM57.124 30C56.7898 30 56.29 29.879 55.5912 29.5296L54.6968 31.3184C55.534 31.737 56.3542 32 57.124 32V30ZM55.6248 29.5472C54.9528 29.1787 54.3647 28.7497 53.8559 28.262L52.4721 29.706C53.1153 30.3223 53.8472 30.8533 54.6632 31.3008L55.6248 29.5472ZM53.8711 28.2769C53.6283 28.0341 53.4805 27.8456 53.3985 27.7102C53.3126 27.5682 53.336 27.5459 53.336 27.616H51.336C51.336 28.0461 51.4974 28.4318 51.6875 28.7458C51.8815 29.0664 52.1477 29.3819 52.4569 29.6911L53.8711 28.2769ZM53.3351 27.5726C53.3286 27.4242 53.3715 26.9863 53.5188 26.1518C53.6592 25.3562 53.8777 24.286 54.1764 22.936L52.2236 22.504C51.9223 23.866 51.6968 24.9678 51.5492 25.8042C51.4085 26.6017 51.3194 27.2558 51.3369 27.6594L53.3351 27.5726ZM54.1806 22.9161C54.6369 20.6346 54.9629 18.9324 55.1572 17.8153L53.1868 17.4727C52.9971 18.5636 52.6751 20.2454 52.2194 22.5239L54.1806 22.9161ZM53.172 17.644C53.172 17.6618 53.1724 17.6962 53.1765 17.7392C53.1787 17.763 53.1886 17.8758 53.2406 18.009C53.2657 18.0736 53.3311 18.224 53.4787 18.3661C53.6555 18.5362 53.9369 18.6756 54.2759 18.6403C54.5622 18.6105 54.7496 18.4686 54.8271 18.4015C54.9133 18.3268 54.9675 18.2538 54.9935 18.2165C55.0462 18.1407 55.0761 18.0746 55.0858 18.0529C55.0993 18.0227 55.1087 17.9977 55.1139 17.9833C55.1243 17.9544 55.1313 17.9309 55.1344 17.9201C55.1456 17.8819 55.1538 17.845 55.1565 17.8329C55.1651 17.7948 55.176 17.7427 55.1881 17.6828C55.2131 17.5594 55.2498 17.3718 55.2979 17.1223C55.3944 16.622 55.5387 15.8613 55.7307 14.841L53.7653 14.471C53.5733 15.4907 53.4296 16.248 53.3341 16.7437C53.2862 16.9922 53.2509 17.1721 53.2279 17.2857C53.216 17.3443 53.2089 17.378 53.2055 17.3932C53.2022 17.4077 53.2059 17.3894 53.2141 17.3614C53.2164 17.3532 53.2228 17.3317 53.2326 17.3044C53.2376 17.2908 53.2467 17.2665 53.2599 17.2368C53.2694 17.2156 53.2991 17.1499 53.3517 17.0744C53.3775 17.0372 53.4316 16.9643 53.5178 16.8897C53.5952 16.8226 53.7825 16.6808 54.0687 16.651C54.4076 16.6157 54.689 16.7551 54.8657 16.9251C55.0133 17.0672 55.0786 17.2175 55.1037 17.2819C55.1556 17.4149 55.1654 17.5274 55.1676 17.5507C55.1716 17.5932 55.172 17.627 55.172 17.644H53.172ZM55.7315 14.8372C56.0671 13.0148 56.272 11.8944 56.3448 11.4818L54.3752 11.1342C54.304 11.5376 54.1009 12.6492 53.7645 14.4748L55.7315 14.8372ZM55.2391 10.3153L49.6231 10.9993L49.8649 12.9847L55.4809 12.3007L55.2391 10.3153ZM50.2097 11.1071C49.9163 10.9526 49.6724 10.729 49.4735 10.414L47.7825 11.482C48.1596 12.079 48.6597 12.5514 49.2783 12.8769L50.2097 11.1071ZM49.5042 10.4661C49.3221 10.1349 49.232 9.78485 49.232 9.4H47.232C47.232 10.1192 47.4059 10.8011 47.7518 11.4299L49.5042 10.4661ZM49.232 9.4C49.232 8.73197 49.4788 8.12737 50.0551 7.55111L48.6409 6.13689C47.7292 7.04863 47.232 8.14803 47.232 9.4H49.232ZM49.487 7.83429C50.8034 7.64954 52.4658 7.5312 54.4835 7.48372L54.4365 5.48427C52.3742 5.5328 50.6286 5.65446 49.209 5.85371L49.487 7.83429ZM54.4949 7.48339C56.5511 7.41166 57.793 7.36314 58.1944 7.33805L58.0696 5.34195C57.703 5.36486 56.4969 5.41234 54.4251 5.48461L54.4949 7.48339ZM58.1606 7.33959C60.6811 7.26758 62.5226 7.20742 63.6816 7.15913L63.5984 5.16086C62.4534 5.20857 60.6229 5.26842 58.1034 5.34041L58.1606 7.33959ZM63.7011 7.15813C64.9067 7.08432 65.9527 6.96 66.8297 6.77946L66.4263 4.82054C65.6713 4.976 64.7253 5.09168 63.5789 5.16187L63.7011 7.15813ZM70.6088 10.66L70.7208 9.66629L70.5175 9.64338L70.3215 9.70217L70.6088 10.66ZM75.2528 12.208L74.7361 13.0642L74.7448 13.0694L74.7535 13.0744L75.2528 12.208ZM78.4208 24.124L77.5112 23.7085L77.5112 23.7085L78.4208 24.124ZM74.7128 29.02L75.353 29.7882L75.353 29.7882L74.7128 29.02ZM66.3608 29.956L65.8061 30.7881L65.8126 30.7924L65.8191 30.7966L66.3608 29.956ZM63.6248 27.364L62.8047 27.9362L62.8123 27.9471L62.8202 27.9579L63.6248 27.364ZM63.0848 20.128L64.0584 20.3562L64.0592 20.3529L63.0848 20.128ZM64.7408 15.592L64.2577 14.7164L63.9886 14.8649L63.8493 15.1389L64.7408 15.592ZM67.6928 15.124L67.4297 16.0888L69.2324 16.5804L68.6415 14.8078L67.6928 15.124ZM68.3408 12.028L67.5918 11.3654L67.5845 11.3737L67.5774 11.3821L68.3408 12.028ZM68.1248 26.896L67.1384 27.0604L67.3315 28.219L68.4445 27.8435L68.1248 26.896ZM72.7688 23.44L73.5971 24.0003L73.5971 24.0003L72.7688 23.44ZM74.9648 17.608L75.9523 17.7656L76.0501 17.1527L75.5443 16.793L74.9648 17.608ZM69.5288 16.492L69.4293 15.497L67.9231 15.6476L68.6526 16.9739L69.5288 16.492ZM69.9248 18.112L70.7693 18.6475L70.9248 18.4023V18.112H69.9248ZM68.4848 21.388L69.4463 21.6627L69.4478 21.6576L68.4848 21.388ZM70.4968 11.6537C72.0656 11.8305 73.4743 12.3027 74.7361 13.0642L75.7695 11.3518C74.2473 10.4333 72.56 9.87352 70.7208 9.66629L70.4968 11.6537ZM74.7535 13.0744C76.062 13.8285 77.0464 14.7166 77.7408 15.7265L79.3889 14.5935C78.4992 13.2994 77.2756 12.2195 75.7521 11.3416L74.7535 13.0744ZM77.7408 15.7265C78.443 16.7479 78.7528 17.7061 78.7528 18.616H80.7528C80.7528 17.2219 80.2706 15.8761 79.3889 14.5935L77.7408 15.7265ZM78.7528 18.616C78.7528 20.1709 78.3534 21.8648 77.5112 23.7085L79.3304 24.5395C80.2642 22.4952 80.7528 20.5171 80.7528 18.616H78.7528ZM77.5112 23.7085C76.6831 25.5214 75.5373 27.0312 74.0726 28.2518L75.353 29.7882C77.0563 28.3688 78.3825 26.6146 79.3304 24.5395L77.5112 23.7085ZM74.0726 28.2518C72.6566 29.4318 71.116 30 69.4208 30V32C71.6136 32 73.6011 31.2482 75.353 29.7882L74.0726 28.2518ZM69.4208 30C68.7078 30 67.8743 29.7417 66.9025 29.1154L65.8191 30.7966C67.0073 31.5623 68.2138 32 69.4208 32V30ZM66.9155 29.1239C65.9285 28.4659 65.1021 27.6815 64.4294 26.7701L62.8202 27.9579C63.6356 29.0625 64.6332 30.0061 65.8061 30.7881L66.9155 29.1239ZM64.4449 26.7918C63.7785 25.8366 63.5448 25.127 63.5448 24.628H61.5448C61.5448 25.713 62.0311 26.8274 62.8047 27.9362L64.4449 26.7918ZM63.5448 24.628C63.5448 23.2465 63.7146 21.8231 64.0584 20.3562L62.1112 19.8998C61.735 21.5049 61.5448 23.0815 61.5448 24.628H63.5448ZM64.0592 20.3529C64.4005 18.874 64.9241 17.4385 65.6323 16.045L63.8493 15.1389C63.0695 16.6735 62.4892 18.262 62.1104 19.9031L64.0592 20.3529ZM65.2239 16.4676C65.7932 16.1535 66.3245 16.016 66.8288 16.016V14.016C65.9411 14.016 65.0804 14.2625 64.2577 14.7164L65.2239 16.4676ZM66.8288 16.016C67.0641 16.016 67.2625 16.0432 67.4297 16.0888L67.9559 14.1592C67.5952 14.0608 67.2175 14.016 66.8288 14.016V16.016ZM68.6415 14.8078C68.5871 14.6446 68.5488 14.4197 68.5488 14.116H66.5488C66.5488 14.5803 66.6065 15.0274 66.7441 15.4402L68.6415 14.8078ZM68.5488 14.116C68.5488 13.6005 68.7183 13.13 69.1042 12.6739L67.5774 11.3821C66.9073 12.174 66.5488 13.0955 66.5488 14.116H68.5488ZM69.0898 12.6906C69.4954 12.2321 70.0781 11.8633 70.8962 11.6178L70.3215 9.70217C69.2196 10.0327 68.2902 10.5759 67.5918 11.3654L69.0898 12.6906ZM68.4445 27.8435C70.629 27.1066 72.362 25.8261 73.5971 24.0003L71.9405 22.8797C70.9676 24.3179 69.6046 25.3414 67.8052 25.9485L68.4445 27.8435ZM73.5971 24.0003C74.795 22.2295 75.573 20.1429 75.9523 17.7656L73.9773 17.4504C73.6367 19.5851 72.9506 21.3865 71.9405 22.8797L73.5971 24.0003ZM75.5443 16.793C74.2401 15.8656 72.5489 15.456 70.5728 15.456V17.456C72.2927 17.456 73.5295 17.8144 74.3853 18.423L75.5443 16.793ZM70.5728 15.456C70.1073 15.456 69.7196 15.4679 69.4293 15.497L69.6283 17.487C69.818 17.4681 70.1264 17.456 70.5728 17.456V15.456ZM68.6526 16.9739C68.8278 17.2925 68.9248 17.6641 68.9248 18.112H70.9248C70.9248 17.3599 70.7578 16.6515 70.405 16.0101L68.6526 16.9739ZM69.0803 17.5765C68.4006 18.6484 67.8823 19.8309 67.5218 21.1184L69.4478 21.6576C69.7593 20.5451 70.2011 19.5436 70.7693 18.6475L69.0803 17.5765ZM67.5233 21.1133C67.1623 22.3769 66.9808 23.6573 66.9808 24.952H68.9808C68.9808 23.8467 69.1354 22.7511 69.4463 21.6627L67.5233 21.1133ZM66.9808 24.952C66.9808 25.7149 67.0316 26.4193 67.1384 27.0604L69.1112 26.7316C69.0261 26.2207 68.9808 25.6291 68.9808 24.952H66.9808ZM82.6235 5.44L82.7059 4.4434L82.3768 4.4162L82.0962 4.59036L82.6235 5.44ZM96.5555 12.136L95.7706 12.7557L95.7747 12.7607L96.5555 12.136ZM96.4115 23.62L95.6028 23.0318L95.6028 23.0318L96.4115 23.62ZM90.7955 28.984L90.2429 28.1505L90.2387 28.1534L90.7955 28.984ZM82.5155 30.28L81.9659 31.1155L81.9759 31.1219L82.5155 30.28ZM80.1035 28.228L79.3524 28.8881L79.3574 28.8939L79.3625 28.8995L80.1035 28.228ZM79.7795 22.936L80.7482 23.1844L80.7504 23.1757L79.7795 22.936ZM80.9675 17.68L81.9481 17.8761L80.9675 17.68ZM81.7595 14.512L82.725 14.7725L82.7308 14.7508L82.7357 14.7289L81.7595 14.512ZM82.1195 13.216L83.0784 13.5001L83.0811 13.4907L82.1195 13.216ZM82.5515 11.38L83.5367 11.5513L83.7307 10.4363L82.6003 10.3812L82.5515 11.38ZM81.0755 11.308L80.1811 11.7552L80.4427 12.2783L81.0268 12.3068L81.0755 11.308ZM81.0395 7.024L81.897 7.5385L81.9014 7.53115L81.9057 7.52372L81.0395 7.024ZM84.8195 26.464L83.837 26.2781L83.4542 28.3011L85.2809 27.3512L84.8195 26.464ZM90.7955 21.892L90.0497 21.2258L90.0448 21.2314L90.7955 21.892ZM91.5155 14.116L90.8992 14.9035L90.9075 14.9099L91.5155 14.116ZM87.6995 12.388L87.8956 11.4074L86.912 11.2107L86.7183 12.195L87.6995 12.388ZM86.4035 18.688L87.3819 18.8947L87.3821 18.894L86.4035 18.688ZM82.5412 6.4366C85.3296 6.66705 87.8965 7.35674 90.2508 8.4996L91.1242 6.70039C88.5345 5.44326 85.7255 4.69295 82.7059 4.4434L82.5412 6.4366ZM90.2508 8.4996C92.6117 9.64566 94.4397 11.0697 95.7706 12.7556L97.3404 11.5164C95.7914 9.55426 93.7074 7.95434 91.1242 6.70039L90.2508 8.4996ZM95.7747 12.7607C97.0962 14.4126 97.7155 16.0939 97.7155 17.824H99.7155C99.7155 15.5701 98.8949 13.4594 97.3364 11.5113L95.7747 12.7607ZM97.7155 17.824C97.7155 19.2839 97.0724 21.0111 95.6028 23.0318L97.2203 24.2082C98.8227 22.0049 99.7155 19.8681 99.7155 17.824H97.7155ZM95.6028 23.0318C94.1379 25.0461 92.3531 26.7514 90.2429 28.1506L91.3481 29.8174C93.654 28.2886 95.6132 26.4179 97.2203 24.2082L95.6028 23.0318ZM90.2387 28.1534C88.1475 29.5552 86.3494 30.18 84.8195 30.18V32.18C86.8896 32.18 89.0756 31.3408 91.3523 29.8146L90.2387 28.1534ZM84.8195 30.18C84.514 30.18 83.9474 30.0101 83.0552 29.4381L81.9759 31.1219C82.9556 31.7499 83.9251 32.18 84.8195 32.18V30.18ZM83.0651 29.4446C82.2198 28.8885 81.481 28.2588 80.8445 27.5565L79.3625 28.8995C80.1181 29.7332 80.9872 30.4715 81.9659 31.1154L83.0651 29.4446ZM80.8547 27.5679C80.5336 27.2025 80.3213 26.9074 80.1939 26.6789C80.0602 26.4393 80.0595 26.3432 80.0595 26.356H78.0595C78.0595 26.8248 78.2328 27.2687 78.4472 27.6531C78.6677 28.0486 78.9775 28.4615 79.3524 28.8881L80.8547 27.5679ZM80.0595 26.356C80.0595 26.2722 80.0952 25.9847 80.2181 25.401C80.3338 24.8514 80.5098 24.1142 80.7482 23.1844L78.8109 22.6876C78.5693 23.6298 78.3853 24.3986 78.261 24.989C78.1439 25.5453 78.0595 26.0318 78.0595 26.356H80.0595ZM80.7504 23.1757C81.2331 21.2208 81.6326 19.4539 81.9481 17.8761L79.9869 17.4839C79.6785 19.0261 79.286 20.7632 78.8087 22.6963L80.7504 23.1757ZM81.9481 17.8761C82.0608 17.3126 82.3166 16.286 82.725 14.7725L80.7941 14.2515C80.3865 15.762 80.1142 16.8474 79.9869 17.4839L81.9481 17.8761ZM82.7357 14.7289C82.7749 14.5526 82.8845 14.1541 83.0783 13.5001L81.1607 12.9319C80.9705 13.5739 80.8402 14.0394 80.7833 14.2951L82.7357 14.7289ZM83.0811 13.4907C83.2805 12.7926 83.4334 12.1455 83.5367 11.5513L81.5663 11.2087C81.4776 11.7185 81.3425 12.2954 81.158 12.9413L83.0811 13.4907ZM82.6003 10.3812L81.1243 10.3092L81.0268 12.3068L82.5028 12.3788L82.6003 10.3812ZM81.97 10.8608C81.6471 10.2151 81.4995 9.59923 81.4995 9.004H79.4995C79.4995 9.94476 79.736 10.8649 80.1811 11.7552L81.97 10.8608ZM81.4995 9.004C81.4995 8.45973 81.6331 7.97842 81.897 7.5385L80.182 6.5095C79.726 7.26958 79.4995 8.10827 79.4995 9.004H81.4995ZM81.9057 7.52372C82.1726 7.06107 82.5755 6.64676 83.1509 6.28964L82.0962 4.59036C81.2795 5.09724 80.6264 5.73893 80.1733 6.52428L81.9057 7.52372ZM85.2809 27.3512C87.7765 26.0535 89.8708 24.4565 91.5462 22.5526L90.0448 21.2314C88.5522 22.9275 86.6625 24.3785 84.3582 25.5768L85.2809 27.3512ZM91.5413 22.5582C93.2302 20.6677 94.2075 18.7468 94.2075 16.816H92.2075C92.2075 18.0532 91.5769 19.5163 90.0498 21.2258L91.5413 22.5582ZM94.2075 16.816C94.2075 15.434 93.3671 14.2746 92.1236 13.3221L90.9075 14.9099C91.9199 15.6854 92.2075 16.326 92.2075 16.816H94.2075ZM92.1318 13.3285C90.8989 12.3636 89.4814 11.7246 87.8956 11.4074L87.5034 13.3686C88.7977 13.6274 89.9242 14.1404 90.8992 14.9035L92.1318 13.3285ZM86.7183 12.195C86.4316 13.6524 86.0007 15.7473 85.425 18.482L87.3821 18.894C87.9584 16.1567 88.3914 14.0516 88.6807 12.581L86.7183 12.195ZM85.4251 18.4813C84.7047 21.8911 84.175 24.4914 83.837 26.2781L85.8021 26.6499C86.1361 24.8846 86.6623 22.3009 87.3819 18.8947L85.4251 18.4813ZM105.788 10.66L105.9 9.66629L105.696 9.64338L105.5 9.70217L105.788 10.66ZM110.432 12.208L109.915 13.0642L109.924 13.0694L109.932 13.0744L110.432 12.208ZM113.6 24.124L112.69 23.7085L112.69 23.7085L113.6 24.124ZM109.892 29.02L110.532 29.7882L110.532 29.7882L109.892 29.02ZM101.54 29.956L100.985 30.7881L100.991 30.7924L100.998 30.7966L101.54 29.956ZM98.8036 27.364L97.9834 27.9362L97.9911 27.9471L97.999 27.9579L98.8036 27.364ZM98.2636 20.128L99.2372 20.3562L99.238 20.3529L98.2636 20.128ZM99.9196 15.592L99.4365 14.7164L99.1673 14.8649L99.0281 15.1389L99.9196 15.592ZM102.872 15.124L102.608 16.0888L104.411 16.5804L103.82 14.8078L102.872 15.124ZM103.52 12.028L102.771 11.3654L102.763 11.3737L102.756 11.3821L103.52 12.028ZM103.304 26.896L102.317 27.0604L102.51 28.219L103.623 27.8435L103.304 26.896ZM107.948 23.44L108.776 24.0003L108.776 24.0003L107.948 23.44ZM110.144 17.608L111.131 17.7656L111.229 17.1527L110.723 16.793L110.144 17.608ZM104.708 16.492L104.608 15.497L103.102 15.6476L103.831 16.9739L104.708 16.492ZM105.104 18.112L105.948 18.6475L106.104 18.4023V18.112H105.104ZM103.664 21.388L104.625 21.6627L104.627 21.6576L103.664 21.388ZM105.676 11.6537C107.244 11.8305 108.653 12.3027 109.915 13.0642L110.948 11.3518C109.426 10.4333 107.739 9.87352 105.9 9.66629L105.676 11.6537ZM109.932 13.0744C111.241 13.8285 112.225 14.7166 112.92 15.7265L114.568 14.5935C113.678 13.2994 112.454 12.2195 110.931 11.3416L109.932 13.0744ZM112.92 15.7265C113.622 16.7479 113.932 17.7061 113.932 18.616H115.932C115.932 17.2219 115.449 15.8761 114.568 14.5935L112.92 15.7265ZM113.932 18.616C113.932 20.1709 113.532 21.8648 112.69 23.7085L114.509 24.5395C115.443 22.4952 115.932 20.5171 115.932 18.616H113.932ZM112.69 23.7085C111.862 25.5214 110.716 27.0312 109.251 28.2518L110.532 29.7882C112.235 28.3688 113.561 26.6146 114.509 24.5395L112.69 23.7085ZM109.251 28.2518C107.835 29.4318 106.295 30 104.6 30V32C106.792 32 108.78 31.2482 110.532 29.7882L109.251 28.2518ZM104.6 30C103.887 30 103.053 29.7417 102.081 29.1154L100.998 30.7966C102.186 31.5623 103.393 32 104.6 32V30ZM102.094 29.1239C101.107 28.4659 100.281 27.6815 99.6081 26.7701L97.999 27.9579C98.8143 29.0625 99.8119 30.0061 100.985 30.7881L102.094 29.1239ZM99.6237 26.7918C98.9573 25.8366 98.7236 25.127 98.7236 24.628H96.7236C96.7236 25.713 97.2099 26.8274 97.9834 27.9362L99.6237 26.7918ZM98.7236 24.628C98.7236 23.2465 98.8934 21.8231 99.2372 20.3562L97.2899 19.8998C96.9138 21.5049 96.7236 23.0815 96.7236 24.628H98.7236ZM99.238 20.3529C99.5792 18.874 100.103 17.4385 100.811 16.045L99.0281 15.1389C98.2482 16.6735 97.6679 18.262 97.2892 19.9031L99.238 20.3529ZM100.403 16.4676C100.972 16.1535 101.503 16.016 102.008 16.016V14.016C101.12 14.016 100.259 14.2625 99.4365 14.7164L100.403 16.4676ZM102.008 16.016C102.243 16.016 102.441 16.0432 102.608 16.0888L103.135 14.1592C102.774 14.0608 102.396 14.016 102.008 14.016V16.016ZM103.82 14.8078C103.766 14.6446 103.728 14.4197 103.728 14.116H101.728C101.728 14.5803 101.785 15.0274 101.923 15.4402L103.82 14.8078ZM103.728 14.116C103.728 13.6005 103.897 13.13 104.283 12.6739L102.756 11.3821C102.086 12.174 101.728 13.0955 101.728 14.116H103.728ZM104.269 12.6906C104.674 12.2321 105.257 11.8633 106.075 11.6178L105.5 9.70217C104.398 10.0327 103.469 10.5759 102.771 11.3654L104.269 12.6906ZM103.623 27.8435C105.808 27.1066 107.541 25.8261 108.776 24.0003L107.119 22.8797C106.146 24.3179 104.783 25.3414 102.984 25.9485L103.623 27.8435ZM108.776 24.0003C109.974 22.2295 110.752 20.1429 111.131 17.7656L109.156 17.4504C108.815 19.5851 108.129 21.3865 107.119 22.8797L108.776 24.0003ZM110.723 16.793C109.419 15.8656 107.728 15.456 105.752 15.456V17.456C107.471 17.456 108.708 17.8144 109.564 18.423L110.723 16.793ZM105.752 15.456C105.286 15.456 104.898 15.4679 104.608 15.497L104.807 17.487C104.997 17.4681 105.305 17.456 105.752 17.456V15.456ZM103.831 16.9739C104.007 17.2925 104.104 17.6641 104.104 18.112H106.104C106.104 17.3599 105.937 16.6515 105.584 16.0101L103.831 16.9739ZM104.259 17.5765C103.579 18.6484 103.061 19.8309 102.701 21.1184L104.627 21.6576C104.938 20.5451 105.38 19.5436 105.948 18.6475L104.259 17.5765ZM102.702 21.1133C102.341 22.3769 102.16 23.6573 102.16 24.952H104.16C104.16 23.8467 104.314 22.7511 104.625 21.6627L102.702 21.1133ZM102.16 24.952C102.16 25.7149 102.21 26.4193 102.317 27.0604L104.29 26.7316C104.205 26.2207 104.16 25.6291 104.16 24.952H102.16ZM130.762 22.036L131.76 21.9736L131.759 21.9538L131.757 21.934L130.762 22.036ZM131.014 24.952L130.019 25.0439L130.019 25.0523L130.02 25.0607L131.014 24.952ZM130.798 30.964L131.041 31.9341L131.067 31.9277L131.092 31.9198L130.798 30.964ZM128.35 30.64L128.025 31.5857L128.043 31.5917L128.06 31.597L128.35 30.64ZM126.262 29.668L125.723 30.5103L125.731 30.515L125.738 30.5197L126.262 29.668ZM125.218 28.552L124.252 28.8097L124.252 28.8097L125.218 28.552ZM125.074 24.016H126.074V22.8884L124.955 23.0232L125.074 24.016ZM119.962 24.592L119.874 23.5959L119.226 23.653L119.016 24.2686L119.962 24.592ZM117.73 30.82L117.947 31.7962L118.478 31.6783L118.667 31.1689L117.73 30.82ZM113.482 30.352L112.887 31.1556L112.904 31.1679L112.921 31.1795L113.482 30.352ZM112.186 28.192L111.272 27.7859L111.138 28.0885L111.211 28.4115L112.186 28.192ZM112.906 26.572L111.994 26.1624L111.992 26.1659L112.906 26.572ZM119.746 11.776L118.848 11.3375L118.845 11.3419L119.746 11.776ZM125.506 6.304L125.144 7.23604L125.152 7.23928L125.506 6.304ZM127.882 7.528L127.315 8.35121L127.321 8.35568L127.328 8.36005L127.882 7.528ZM129.106 8.824L130.076 8.58146L130.076 8.58146L129.106 8.824ZM129.79 13.036L128.799 13.1696L128.799 13.1696L129.79 13.036ZM130.474 19.228L129.478 19.312L129.479 19.321L129.479 19.33L130.474 19.228ZM124.966 11.416L125.965 11.3634L124.045 11.0264L124.966 11.416ZM121.834 19.444L120.894 19.1042L120.374 20.5413L121.899 20.4419L121.834 19.444ZM125.11 19.12L125.242 20.1112L126.11 19.9955V19.12H125.11ZM129.764 22.0984C129.789 22.5006 129.875 23.4896 130.019 25.0439L132.01 24.8601C131.866 23.2944 131.783 22.3394 131.76 21.9736L129.764 22.0984ZM130.02 25.0607C130.186 26.5765 130.266 27.8214 130.266 28.804H132.266C132.266 27.7226 132.179 26.3995 132.008 24.8433L130.02 25.0607ZM130.266 28.804C130.266 29.4528 130.227 29.8848 130.172 30.1402C130.144 30.2699 130.123 30.3001 130.136 30.2775C130.148 30.2559 130.251 30.086 130.504 30.0082L131.092 31.9198C131.501 31.794 131.741 31.4981 131.87 31.2725C132 31.0459 132.077 30.7941 132.127 30.5638C132.227 30.0992 132.266 29.4992 132.266 28.804H130.266ZM130.556 29.9939C130.584 29.9868 130.583 29.9901 130.533 29.9939C130.488 29.9974 130.422 30 130.33 30V32C130.555 32 130.817 31.9901 131.041 31.9341L130.556 29.9939ZM130.33 30C129.94 30 129.385 29.9087 128.64 29.683L128.06 31.597C128.899 31.8513 129.665 32 130.33 32V30ZM128.675 29.6943C127.97 29.4517 127.341 29.1579 126.786 28.8163L125.738 30.5197C126.431 30.9461 127.195 31.3003 128.025 31.5857L128.675 29.6943ZM126.801 28.8257C126.546 28.6623 126.381 28.5243 126.282 28.4178C126.181 28.31 126.177 28.2676 126.185 28.2943L124.252 28.8097C124.45 29.5519 125.081 30.0992 125.723 30.5103L126.801 28.8257ZM126.185 28.2943C126.187 28.3039 126.171 28.2267 126.152 27.9893C126.136 27.7765 126.122 27.4871 126.11 27.1163C126.086 26.3759 126.074 25.3441 126.074 24.016H124.074C124.074 25.3519 124.086 26.4081 124.111 27.1797C124.123 27.5649 124.139 27.8875 124.158 28.1427C124.176 28.3733 124.201 28.6201 124.252 28.8097L126.185 28.2943ZM124.955 23.0232C122.359 23.3356 120.672 23.5255 119.874 23.5959L120.05 25.5881C120.885 25.5145 122.605 25.3204 125.194 25.0088L124.955 23.0232ZM119.016 24.2686C118.371 26.1545 117.631 28.2219 116.793 30.4711L118.667 31.1689C119.51 28.9061 120.257 26.8215 120.909 24.9154L119.016 24.2686ZM117.513 29.8438C116.923 29.9751 116.396 30.036 115.93 30.036V32.036C116.568 32.036 117.242 31.9529 117.947 31.7962L117.513 29.8438ZM115.93 30.036C115.133 30.036 114.522 29.8489 114.044 29.5245L112.921 31.1795C113.787 31.7671 114.807 32.036 115.93 32.036V30.036ZM114.078 29.5484C113.662 29.2409 113.337 28.7522 113.162 27.9725L111.211 28.4115C111.467 29.5518 112.006 30.5031 112.887 31.1556L114.078 29.5484ZM113.1 28.5981L113.82 26.9781L111.992 26.1659L111.272 27.7859L113.1 28.5981ZM113.819 26.9816C116.456 21.1065 118.732 16.1833 120.647 12.2101L118.845 11.3419C116.92 15.3367 114.636 20.2775 111.994 26.1624L113.819 26.9816ZM120.645 12.2145C121.612 10.2322 122.394 8.77747 122.994 7.82857C123.297 7.35009 123.532 7.03509 123.701 6.85123C123.742 6.80756 123.774 6.77612 123.798 6.75439C123.823 6.73222 123.834 6.72453 123.833 6.72542C123.832 6.72575 123.809 6.74194 123.763 6.75923C123.716 6.77675 123.634 6.8 123.526 6.8V4.8C123.175 4.8 122.896 4.94609 122.724 5.06132C122.54 5.18389 122.375 5.33921 122.231 5.49577C121.941 5.80991 121.632 6.24191 121.304 6.75943C120.644 7.80253 119.824 9.33579 118.848 11.3375L120.645 12.2145ZM123.526 6.8C123.787 6.8 124.301 6.90826 125.144 7.236L125.869 5.37199C124.984 5.02774 124.178 4.8 123.526 4.8V6.8ZM125.152 7.23928C125.974 7.55014 126.693 7.92228 127.315 8.35121L128.45 6.70479C127.68 6.17371 126.815 5.72985 125.86 5.36871L125.152 7.23928ZM127.328 8.36005C127.651 8.57537 127.867 8.75609 128.001 8.89862C128.142 9.04762 128.145 9.10397 128.136 9.06653L130.076 8.58146C129.971 8.16002 129.723 7.80838 129.455 7.52537C129.182 7.23591 128.834 6.96063 128.437 6.69595L127.328 8.36005ZM128.136 9.06653C128.288 9.67519 128.51 11.0229 128.799 13.1696L130.781 12.9024C130.495 10.7771 130.26 9.31681 130.076 8.58146L128.136 9.06653ZM128.799 13.1696C129.085 15.2904 129.311 17.3378 129.478 19.312L131.471 19.144C131.301 17.1342 131.071 15.0536 130.781 12.9024L128.799 13.1696ZM129.479 19.33L129.767 22.138L131.757 21.934L131.469 19.126L129.479 19.33ZM124.045 11.0264C122.982 13.5406 121.931 16.2334 120.894 19.1042L122.775 19.7838C123.801 16.9426 124.839 14.2834 125.887 11.8056L124.045 11.0264ZM121.899 20.4419C123.025 20.3684 124.14 20.2582 125.242 20.1112L124.978 18.1288C123.921 18.2698 122.851 18.3756 121.769 18.4461L121.899 20.4419ZM126.11 19.12C126.11 15.8021 126.062 13.2136 125.965 11.3634L123.968 11.4686C124.062 13.2664 124.11 15.8139 124.11 19.12H126.11ZM147.454 12.208L146.934 13.0618L146.934 13.0618L147.454 12.208ZM149.722 14.692L148.828 15.1392L148.834 15.1515L148.84 15.1637L149.722 14.692ZM148.894 24.088L148.017 23.6077L148.015 23.6114L148.894 24.088ZM144.61 29.056L145.205 29.8599L145.207 29.8586L144.61 29.056ZM136.69 30.028L137.312 29.2449L136.084 28.2695L135.718 29.7946L136.69 30.028ZM136.006 33.7L135.015 33.5666L135.014 33.577L135.013 33.5875L136.006 33.7ZM135.754 35.932L136.747 36.0488L136.748 36.0424L135.754 35.932ZM135.178 39.46L134.212 39.2023L134.208 39.2175L134.204 39.2328L135.178 39.46ZM132.262 39.928L131.781 40.8049L131.793 40.8111L132.262 39.928ZM130.354 38.452L131.091 37.7763L131.077 37.7603L131.061 37.7449L130.354 38.452ZM130.138 33.988L131.106 34.241L131.106 34.241L130.138 33.988ZM132.01 27.22L132.972 27.4937L132.973 27.4913L132.01 27.22ZM133.738 20.992L132.773 20.7315L132.773 20.7315L133.738 20.992ZM134.026 17.536L133.279 18.2004L133.318 18.2443L133.362 18.2834L134.026 17.536ZM133.054 16.636L133.698 15.8711L133.691 15.8648L133.683 15.8588L133.054 16.636ZM131.938 15.664L132.645 14.9569L132.645 14.9569L131.938 15.664ZM132.262 13.144L131.448 12.5628L131.441 12.5725L131.435 12.5825L132.262 13.144ZM133.918 11.416L133.323 10.6124L133.316 10.6178L133.308 10.6234L133.918 11.416ZM139.858 14.152L138.964 14.5992L139.785 16.2416L140.719 14.6607L139.858 14.152ZM141.262 11.776L140.946 10.8273L140.591 10.9455L140.401 11.2673L141.262 11.776ZM141.658 25.204L142.314 25.959L142.319 25.9542L142.325 25.9492L141.658 25.204ZM143.962 22.216L144.846 22.6847L144.849 22.6774L143.962 22.216ZM140.362 17.752L139.553 17.165L139.55 17.1688L140.362 17.752ZM138.742 21.208L137.784 20.9222L137.782 20.93L137.779 20.9377L138.742 21.208ZM138.418 26.032L137.599 26.6055L137.617 26.6317L137.637 26.6567L138.418 26.032ZM144.07 12.308C145.178 12.308 146.122 12.5671 146.934 13.0618L147.975 11.3542C146.818 10.6488 145.506 10.308 144.07 10.308V12.308ZM146.934 13.0618C147.753 13.5616 148.382 14.2468 148.828 15.1392L150.617 14.2448C150.007 13.0252 149.123 12.0544 147.975 11.3542L146.934 13.0618ZM148.84 15.1637C149.307 16.0355 149.55 17.0346 149.55 18.184H151.55C151.55 16.7414 151.242 15.4125 150.604 14.2203L148.84 15.1637ZM149.55 18.184C149.55 19.9059 149.056 21.71 148.017 23.6077L149.771 24.5683C150.94 22.434 151.55 20.3021 151.55 18.184H149.55ZM148.015 23.6114C147.003 25.4786 145.67 27.0223 144.014 28.2534L145.207 29.8586C147.102 28.4497 148.626 26.6814 149.773 24.5646L148.015 23.6114ZM144.015 28.2521C142.409 29.4405 140.789 30 139.138 30V32C141.279 32 143.308 31.2635 145.205 29.8599L144.015 28.2521ZM139.138 30C138.604 30 138.001 29.7919 137.312 29.2449L136.068 30.8111C137.011 31.5601 138.04 32 139.138 32V30ZM135.718 29.7946C135.422 31.0283 135.188 32.2857 135.015 33.5666L136.997 33.8334C137.161 32.6183 137.383 31.4277 137.663 30.2614L135.718 29.7946ZM135.013 33.5875C134.869 34.8589 134.784 35.6043 134.76 35.8216L136.748 36.0424C136.772 35.8277 136.856 35.0851 137 33.8125L135.013 33.5875ZM134.761 35.8152C134.57 37.4422 134.384 38.5569 134.212 39.2023L136.144 39.7177C136.356 38.9231 136.555 37.6858 136.747 36.0488L134.761 35.8152ZM134.204 39.2328C134.171 39.3736 134.138 39.4779 134.107 39.5523C134.076 39.6278 134.054 39.6582 134.052 39.6616C134.05 39.6632 134.076 39.6288 134.139 39.5946C134.207 39.5577 134.283 39.54 134.35 39.54V41.54C134.912 41.54 135.35 41.2549 135.639 40.8784C135.901 40.5365 136.054 40.1089 136.152 39.6872L134.204 39.2328ZM134.35 39.54C133.941 39.54 133.409 39.4047 132.731 39.0449L131.793 40.8111C132.652 41.2673 133.511 41.54 134.35 41.54V39.54ZM132.743 39.0512C132.087 38.6912 131.539 38.2651 131.091 37.7763L129.617 39.1277C130.225 39.791 130.95 40.3488 131.781 40.8048L132.743 39.0512ZM131.061 37.7449C130.824 37.5078 130.68 37.3192 130.6 37.1795C130.519 37.0392 130.526 36.9895 130.526 37.012H128.526C128.526 37.8421 129.059 38.5715 129.647 39.1591L131.061 37.7449ZM130.526 37.012C130.526 36.8924 130.558 36.6115 130.659 36.1124C130.756 35.6339 130.904 35.0118 131.106 34.241L129.171 33.735C128.964 34.5242 128.806 35.1861 128.699 35.7156C128.596 36.2245 128.526 36.6756 128.526 37.012H130.526ZM131.106 34.241C131.511 32.6916 132.133 30.4438 132.972 27.4937L131.048 26.9463C130.208 29.9002 129.581 32.1644 129.171 33.735L131.106 34.241ZM132.973 27.4913C133.717 24.8499 134.294 22.7698 134.704 21.2525L132.773 20.7315C132.366 22.2382 131.791 24.3101 131.048 26.9487L132.973 27.4913ZM134.704 21.2525C134.91 20.488 135.068 19.8507 135.175 19.3459C135.277 18.8661 135.35 18.432 135.35 18.112H133.35C133.35 18.2 133.321 18.4499 133.219 18.9301C133.122 19.3853 132.974 19.984 132.773 20.7315L134.704 21.2525ZM135.35 18.112C135.35 17.5158 135.012 17.074 134.691 16.7886L133.362 18.2834C133.411 18.3274 133.412 18.3397 133.398 18.3143C133.38 18.2829 133.35 18.2117 133.35 18.112H135.35ZM134.774 16.8716C134.531 16.599 134.161 16.2607 133.698 15.8711L132.41 17.4009C132.859 17.7793 133.137 18.041 133.279 18.2004L134.774 16.8716ZM133.683 15.8588C133.187 15.4568 132.847 15.1591 132.645 14.9569L131.231 16.3711C131.509 16.6489 131.914 16.9992 132.425 17.4132L133.683 15.8588ZM132.645 14.9569C132.589 14.9006 132.573 14.8687 132.571 14.8651C132.57 14.8636 132.573 14.8679 132.575 14.8772C132.577 14.8868 132.578 14.8975 132.578 14.908H130.578C130.578 15.5072 130.86 15.9996 131.231 16.3711L132.645 14.9569ZM132.578 14.908C132.578 14.6926 132.683 14.3043 133.09 13.7055L131.435 12.5825C130.929 13.3277 130.578 14.1154 130.578 14.908H132.578ZM133.076 13.7252C133.502 13.1294 133.986 12.6257 134.528 12.2086L133.308 10.6234C132.603 11.1663 131.983 11.8146 131.448 12.5628L133.076 13.7252ZM134.513 12.2196C135.106 11.7803 135.443 11.696 135.574 11.696V9.696C134.794 9.696 134.026 10.0917 133.323 10.6124L134.513 12.2196ZM135.574 11.696C135.912 11.696 136.475 11.894 137.296 12.6044L138.604 11.0916C137.65 10.2659 136.628 9.696 135.574 9.696V11.696ZM137.296 12.6044C138.119 13.3158 138.656 13.9838 138.964 14.5992L140.753 13.7048C140.292 12.7842 139.558 11.9162 138.604 11.0916L137.296 12.6044ZM140.719 14.6607L142.123 12.2847L140.401 11.2673L138.997 13.6433L140.719 14.6607ZM141.578 12.7247C142.418 12.4448 143.247 12.308 144.07 12.308V10.308C143.021 10.308 141.978 10.4832 140.946 10.8273L141.578 12.7247ZM139.138 27.392C140.252 27.392 141.319 26.8231 142.314 25.959L141.003 24.449C140.173 25.1689 139.56 25.392 139.138 25.392V27.392ZM142.325 25.9492C143.332 25.0479 144.171 23.9558 144.846 22.6847L143.079 21.7473C142.505 22.8282 141.808 23.7281 140.991 24.4588L142.325 25.9492ZM144.849 22.6774C145.529 21.3701 145.898 20.0721 145.898 18.796H143.898C143.898 19.6799 143.643 20.6619 143.075 21.7546L144.849 22.6774ZM145.898 18.796C145.898 17.8503 145.668 16.969 145.07 16.2956L143.575 17.6244C143.744 17.815 143.898 18.1577 143.898 18.796H145.898ZM145.07 16.2956C144.451 15.5995 143.596 15.312 142.666 15.312V17.312C143.176 17.312 143.426 17.4565 143.575 17.6244L145.07 16.2956ZM142.666 15.312C141.387 15.312 140.354 16.0597 139.553 17.165L141.172 18.339C141.762 17.5243 142.265 17.312 142.666 17.312V15.312ZM139.55 17.1688C138.8 18.2138 138.216 19.4721 137.784 20.9222L139.7 21.4938C140.084 20.2079 140.581 19.1622 141.175 18.3352L139.55 17.1688ZM137.779 20.9377C137.376 22.3741 137.166 23.7263 137.166 24.988H139.166C139.166 23.9457 139.34 22.7779 139.705 21.4783L137.779 20.9377ZM137.166 24.988C137.166 25.5431 137.264 26.1275 137.599 26.6055L139.237 25.4585C139.239 25.4609 139.22 25.435 139.201 25.3564C139.182 25.2768 139.166 25.1573 139.166 24.988H137.166ZM137.637 26.6567C138.004 27.1156 138.524 27.392 139.138 27.392V25.392C139.136 25.392 139.142 25.3918 139.153 25.3944C139.164 25.397 139.177 25.4014 139.189 25.4076C139.202 25.4137 139.209 25.4193 139.211 25.4213C139.213 25.423 139.209 25.4197 139.199 25.4073L137.637 26.6567ZM165.887 12.208L165.367 13.0618L165.367 13.0618L165.887 12.208ZM168.155 14.692L167.261 15.1392L167.267 15.1515L167.274 15.1637L168.155 14.692ZM167.327 24.088L166.45 23.6077L166.448 23.6114L167.327 24.088ZM163.043 29.056L163.638 29.8599L163.64 29.8586L163.043 29.056ZM155.123 30.028L155.745 29.2449L154.517 28.2695L154.151 29.7946L155.123 30.028ZM154.439 33.7L153.448 33.5666L153.447 33.577L153.446 33.5875L154.439 33.7ZM154.187 35.932L155.18 36.0488L155.181 36.0424L154.187 35.932ZM153.611 39.46L152.645 39.2023L152.641 39.2175L152.637 39.2328L153.611 39.46ZM150.695 39.928L150.214 40.8049L150.226 40.8111L150.695 39.928ZM148.787 38.452L149.524 37.7763L149.51 37.7603L149.494 37.7449L148.787 38.452ZM148.571 33.988L149.539 34.241L149.539 34.241L148.571 33.988ZM150.443 27.22L151.405 27.4937L151.406 27.4913L150.443 27.22ZM152.171 20.992L151.206 20.7315L151.206 20.7315L152.171 20.992ZM152.459 17.536L151.712 18.2004L151.751 18.2443L151.795 18.2834L152.459 17.536ZM151.487 16.636L152.131 15.8711L152.124 15.8648L152.117 15.8588L151.487 16.636ZM150.371 15.664L151.078 14.9569L151.078 14.9569L150.371 15.664ZM150.695 13.144L149.882 12.5628L149.875 12.5725L149.868 12.5825L150.695 13.144ZM152.351 11.416L151.756 10.6124L151.749 10.6178L151.742 10.6234L152.351 11.416ZM158.291 14.152L157.397 14.5992L158.218 16.2416L159.152 14.6607L158.291 14.152ZM159.695 11.776L159.379 10.8273L159.025 10.9455L158.834 11.2673L159.695 11.776ZM160.091 25.204L160.747 25.959L160.753 25.9542L160.758 25.9492L160.091 25.204ZM162.395 22.216L163.279 22.6847L163.283 22.6774L162.395 22.216ZM158.795 17.752L157.986 17.165L157.983 17.1688L158.795 17.752ZM157.175 21.208L156.217 20.9222L156.215 20.93L156.213 20.9377L157.175 21.208ZM156.851 26.032L156.032 26.6055L156.05 26.6317L156.07 26.6567L156.851 26.032ZM162.503 12.308C163.611 12.308 164.555 12.5671 165.367 13.0618L166.408 11.3542C165.251 10.6488 163.939 10.308 162.503 10.308V12.308ZM165.367 13.0618C166.186 13.5616 166.815 14.2468 167.261 15.1392L169.05 14.2448C168.44 13.0252 167.556 12.0544 166.408 11.3542L165.367 13.0618ZM167.274 15.1637C167.74 16.0355 167.983 17.0346 167.983 18.184H169.983C169.983 16.7414 169.675 15.4125 169.037 14.2203L167.274 15.1637ZM167.983 18.184C167.983 19.9059 167.489 21.71 166.45 23.6077L168.204 24.5683C169.373 22.434 169.983 20.3021 169.983 18.184H167.983ZM166.448 23.6114C165.436 25.4786 164.103 27.0223 162.447 28.2534L163.64 29.8586C165.535 28.4497 167.059 26.6814 168.206 24.5646L166.448 23.6114ZM162.449 28.2521C160.842 29.4405 159.222 30 157.571 30V32C159.712 32 161.741 31.2635 163.638 29.8599L162.449 28.2521ZM157.571 30C157.037 30 156.434 29.7919 155.745 29.2449L154.501 30.8111C155.445 31.5601 156.473 32 157.571 32V30ZM154.151 29.7946C153.855 31.0283 153.621 32.2857 153.448 33.5666L155.43 33.8334C155.594 32.6183 155.816 31.4277 156.096 30.2614L154.151 29.7946ZM153.446 33.5875C153.302 34.8589 153.218 35.6043 153.193 35.8216L155.181 36.0424C155.205 35.8277 155.289 35.0851 155.433 33.8125L153.446 33.5875ZM153.194 35.8152C153.003 37.4422 152.817 38.5569 152.645 39.2023L154.578 39.7177C154.789 38.9231 154.988 37.6858 155.18 36.0488L153.194 35.8152ZM152.637 39.2328C152.605 39.3736 152.571 39.4779 152.54 39.5523C152.509 39.6278 152.487 39.6582 152.485 39.6616C152.483 39.6632 152.51 39.6288 152.572 39.5946C152.64 39.5577 152.716 39.54 152.783 39.54V41.54C153.345 41.54 153.783 41.2549 154.072 40.8784C154.334 40.5365 154.487 40.1089 154.585 39.6872L152.637 39.2328ZM152.783 39.54C152.375 39.54 151.842 39.4047 151.164 39.0449L150.226 40.8111C151.085 41.2673 151.944 41.54 152.783 41.54V39.54ZM151.176 39.0512C150.52 38.6912 149.973 38.2651 149.524 37.7763L148.05 39.1277C148.658 39.791 149.383 40.3488 150.214 40.8048L151.176 39.0512ZM149.494 37.7449C149.257 37.5078 149.114 37.3192 149.033 37.1795C148.953 37.0392 148.959 36.9895 148.959 37.012H146.959C146.959 37.8421 147.493 38.5715 148.08 39.1591L149.494 37.7449ZM148.959 37.012C148.959 36.8924 148.991 36.6115 149.092 36.1124C149.189 35.6339 149.337 35.0118 149.539 34.241L147.604 33.735C147.397 34.5242 147.239 35.1861 147.132 35.7156C147.029 36.2245 146.959 36.6756 146.959 37.012H148.959ZM149.539 34.241C149.944 32.6916 150.566 30.4438 151.405 27.4937L149.481 26.9463C148.641 29.9002 148.015 32.1644 147.604 33.735L149.539 34.241ZM151.406 27.4913C152.15 24.8499 152.727 22.7698 153.137 21.2525L151.206 20.7315C150.799 22.2382 150.224 24.3101 149.481 26.9487L151.406 27.4913ZM153.137 21.2525C153.343 20.488 153.501 19.8507 153.608 19.3459C153.71 18.8661 153.783 18.432 153.783 18.112H151.783C151.783 18.2 151.754 18.4499 151.652 18.9301C151.555 19.3853 151.408 19.984 151.206 20.7315L153.137 21.2525ZM153.783 18.112C153.783 17.5158 153.445 17.074 153.124 16.7886L151.795 18.2834C151.844 18.3274 151.845 18.3397 151.831 18.3143C151.813 18.2829 151.783 18.2117 151.783 18.112H153.783ZM153.207 16.8716C152.964 16.599 152.594 16.2607 152.131 15.8711L150.843 17.4009C151.292 17.7793 151.57 18.041 151.712 18.2004L153.207 16.8716ZM152.117 15.8588C151.62 15.4568 151.281 15.1591 151.078 14.9569L149.664 16.3711C149.942 16.6489 150.347 16.9992 150.858 17.4132L152.117 15.8588ZM151.078 14.9569C151.022 14.9006 151.006 14.8687 151.004 14.8651C151.003 14.8636 151.006 14.8679 151.008 14.8772C151.01 14.8868 151.011 14.8975 151.011 14.908H149.011C149.011 15.5072 149.293 15.9996 149.664 16.3711L151.078 14.9569ZM151.011 14.908C151.011 14.6926 151.116 14.3043 151.523 13.7055L149.868 12.5825C149.362 13.3277 149.011 14.1154 149.011 14.908H151.011ZM151.509 13.7252C151.935 13.1294 152.419 12.6257 152.961 12.2086L151.742 10.6234C151.036 11.1663 150.416 11.8146 149.882 12.5628L151.509 13.7252ZM152.947 12.2196C153.539 11.7803 153.876 11.696 154.007 11.696V9.696C153.227 9.696 152.459 10.0917 151.756 10.6124L152.947 12.2196ZM154.007 11.696C154.345 11.696 154.908 11.894 155.729 12.6044L157.037 11.0916C156.083 10.2659 155.061 9.696 154.007 9.696V11.696ZM155.729 12.6044C156.552 13.3158 157.089 13.9838 157.397 14.5992L159.186 13.7048C158.725 12.7842 157.991 11.9162 157.037 11.0916L155.729 12.6044ZM159.152 14.6607L160.556 12.2847L158.834 11.2673L157.43 13.6433L159.152 14.6607ZM160.012 12.7247C160.851 12.4448 161.68 12.308 162.503 12.308V10.308C161.454 10.308 160.412 10.4832 159.379 10.8273L160.012 12.7247ZM157.571 27.392C158.685 27.392 159.752 26.8231 160.747 25.959L159.436 24.449C158.607 25.1689 157.994 25.392 157.571 25.392V27.392ZM160.758 25.9492C161.765 25.0479 162.604 23.9558 163.279 22.6847L161.512 21.7473C160.938 22.8282 160.241 23.7281 159.425 24.4588L160.758 25.9492ZM163.283 22.6774C163.962 21.3701 164.331 20.0721 164.331 18.796H162.331C162.331 19.6799 162.076 20.6619 161.508 21.7546L163.283 22.6774ZM164.331 18.796C164.331 17.8503 164.101 16.969 163.503 16.2956L162.008 17.6244C162.177 17.815 162.331 18.1577 162.331 18.796H164.331ZM163.503 16.2956C162.884 15.5995 162.029 15.312 161.099 15.312V17.312C161.609 17.312 161.859 17.4565 162.008 17.6244L163.503 16.2956ZM161.099 15.312C159.82 15.312 158.787 16.0597 157.986 17.165L159.605 18.339C160.196 17.5243 160.699 17.312 161.099 17.312V15.312ZM157.983 17.1688C157.233 18.2138 156.65 19.4721 156.217 20.9222L158.134 21.4938C158.517 20.2079 159.014 19.1622 159.608 18.3352L157.983 17.1688ZM156.213 20.9377C155.809 22.3741 155.599 23.7263 155.599 24.988H157.599C157.599 23.9457 157.773 22.7779 158.138 21.4783L156.213 20.9377ZM155.599 24.988C155.599 25.5431 155.698 26.1275 156.032 26.6055L157.671 25.4585C157.672 25.4609 157.653 25.435 157.634 25.3564C157.615 25.2768 157.599 25.1573 157.599 24.988H155.599ZM156.07 26.6567C156.438 27.1156 156.957 27.392 157.571 27.392V25.392C157.569 25.392 157.575 25.3918 157.586 25.3944C157.597 25.397 157.61 25.4014 157.623 25.4076C157.635 25.4137 157.642 25.4193 157.644 25.4213C157.647 25.423 157.642 25.4197 157.632 25.4073L156.07 26.6567Z" fill="#006E86" fill-opacity="0.3"/>
<g filter="url(#filter0_d_6_7)">
<path d="M8.5 37.25C7.50544 37.25 6.55161 36.8549 5.84835 36.1517C5.14509 35.4484 4.75 34.4946 4.75 33.5V8.5C4.75 7.50544 5.14509 6.55161 5.84835 5.84835C6.55161 5.14509 7.50544 4.75 8.5 4.75H28.5C28.8315 4.75 29.1495 4.8817 29.3839 5.11612C29.6183 5.35054 29.75 5.66848 29.75 6C29.75 6.33152 29.6183 6.64946 29.3839 6.88388C29.1495 7.1183 28.8315 7.25 28.5 7.25H8.5C8.16848 7.25 7.85054 7.3817 7.61612 7.61612C7.3817 7.85054 7.25 8.16848 7.25 8.5V33.5C7.25 33.8315 7.3817 34.1495 7.61612 34.3839C7.85054 34.6183 8.16848 34.75 8.5 34.75H33.5C33.8315 34.75 34.1495 34.6183 34.3839 34.3839C34.6183 34.1495 34.75 33.8315 34.75 33.5V21C34.75 20.6685 34.8817 20.3505 35.1161 20.1161C35.3505 19.8817 35.6685 19.75 36 19.75C36.3315 19.75 36.6495 19.8817 36.8839 20.1161C37.1183 20.3505 37.25 20.6685 37.25 21V33.5C37.25 34.4946 36.8549 35.4484 36.1517 36.1517C35.4484 36.8549 34.4946 37.25 33.5 37.25H8.5Z" fill="#0098BA" fill-opacity="0.83"/>
<path d="M21.8851 26.885L39.3851 9.38502C39.5013 9.2688 39.5935 9.13083 39.6564 8.97898C39.7193 8.82713 39.7517 8.66438 39.7517 8.50002C39.7517 8.33566 39.7193 8.17291 39.6564 8.02106C39.5935 7.86922 39.5013 7.73124 39.3851 7.61502C39.2689 7.4988 39.1309 7.40661 38.9791 7.34371C38.8272 7.28082 38.6645 7.24844 38.5001 7.24844C38.3358 7.24844 38.173 7.28082 38.0212 7.34371C37.8693 7.40661 37.7313 7.4988 37.6151 7.61502L21.0001 24.2325L14.3851 17.615C14.2689 17.4988 14.1309 17.4066 13.9791 17.3437C13.8272 17.2808 13.6645 17.2484 13.5001 17.2484C13.3358 17.2484 13.173 17.2808 13.0212 17.3437C12.8693 17.4066 12.7313 17.4988 12.6151 17.615C12.4989 17.7312 12.4067 17.8692 12.3438 18.0211C12.2809 18.1729 12.2485 18.3357 12.2485 18.5C12.2485 18.6644 12.2809 18.8271 12.3438 18.979C12.4067 19.1308 12.4989 19.2688 12.6151 19.385L20.1151 26.885C20.2312 27.0014 20.3692 27.0938 20.521 27.1568C20.6729 27.2198 20.8357 27.2523 21.0001 27.2523C21.1645 27.2523 21.3273 27.2198 21.4792 27.1568C21.6311 27.0938 21.769 27.0014 21.8851 26.885Z" fill="#0098BA" fill-opacity="0.83"/>
</g>
<defs>
<filter id="filter0_d_6_7" x="-3" y="1" width="48" height="50" filterUnits="userSpaceOnUse" color-interpolation-filters="sRGB">
<feFlood flood-opacity="0" result="BackgroundImageFix"/>
<feColorMatrix in="SourceAlpha" type="matrix" values="0 0 0 0 0 0 0 0 0 0 0 0 0 0 0 0 0 0 127 0" result="hardAlpha"/>
<feOffset dy="6"/>
<feGaussianBlur stdDeviation="2"/>
<feComposite in2="hardAlpha" operator="out"/>
<feColorMatrix type="matrix" values="0 0 0 0 0 0 0 0 0 0 0 0 0 0 0 0 0 0 0.25 0"/>
<feBlend mode="normal" in2="BackgroundImageFix" result="effect1_dropShadow_6_7"/>
<feBlend mode="normal" in="SourceGraphic" in2="effect1_dropShadow_6_7" result="shape"/>
</filter>
</defs>
</svg>
